<?xml version="1.0" encoding="utf-8"?>
<!-- Generator: Adobe Illustrator 22.1.0, SVG Export Plug-In . SVG Version: 6.00 Build 0)  -->
<svg version="1.1" id="圖層_1" xmlns="http://www.w3.org/2000/svg" xmlns:xlink="http://www.w3.org/1999/xlink" x="0px" y="0px"
	 viewBox="0 0 1024 1024" style="enable-background:new 0 0 1024 1024;" xml:space="preserve">
<style type="text/css">
	.st0{fill:#222426;stroke:#222426;stroke-miterlimit:10;}
	.st1{fill:#00FFFF;stroke:#222426;stroke-width:64;stroke-miterlimit:10;}
	.st2{clip-path:url(#SVGID_2_);fill:#00FFFF;stroke:#222426;stroke-width:64;stroke-miterlimit:10;}
	.st3{fill:none;stroke:#222426;stroke-width:64;stroke-miterlimit:10;}
	.st4{fill:#00FFFF;stroke:#222426;stroke-width:64;stroke-linecap:round;stroke-miterlimit:10;}
	.st5{stroke:#222426;stroke-miterlimit:10;}
	.st6{clip-path:url(#SVGID_4_);stroke:#222426;stroke-width:64;stroke-linecap:round;stroke-miterlimit:10;}
	.st7{fill:none;stroke:#222426;stroke-width:64;stroke-linecap:round;stroke-miterlimit:10;}
	.st8{fill:none;stroke:#222426;stroke-width:32;stroke-miterlimit:10;}
</style>
<g>
	<g>
		<path class="st0" d="M242.9,976.2l-10.7,47.8h-56.2l57.5-215.7h71.9l56.8,215.7h-58.1l-11.7-47.8H242.9z M285.7,935l-8.6-39.4
			c-2.8-12.2-6.5-31.5-9.4-44.4H267c-2.9,12.9-6.1,32.6-8.9,44.6l-8.4,39.3H285.7z"/>
		<path class="st0" d="M471.1,808.3v127.2c0,31.3,10.2,46.7,28.9,46.7c18.9,0,28.9-13.6,28.9-46.7V808.3h55.3v122.1
			c0,63.3-29.2,96.9-85.4,96.9c-56.4,0-83-33.3-83-98V808.3H471.1z"/>
		<path class="st0" d="M686.8,856.1h-49.7v-47.8h155.5v47.8h-50.5V1024h-55.3V856.1z"/>
		<path class="st0" d="M1028.3,913.2c0,73-38,114-97.7,114c-63.1,0-94-52.4-94-110.4c0-60,35.5-111.8,97.4-111.8
			C1000.1,805.1,1028.3,860.5,1028.3,913.2z M894.8,916.3c0,43.7,15.2,66,38.2,66c23.7,0,37-26.6,37-67.1
			c0-37.1-13.2-65.3-37.3-65.3C910,850,894.8,874.3,894.8,916.3z"/>
	</g>
</g>
<g>
	<path class="st1" d="M256.5,419.8H81.8C55.4,419.8,34,389.4,34,352V103.9C34,66.4,55.4,36,81.8,36h174.7
		c26.4,0,47.8,30.4,47.8,67.9v248.1C304.2,389.4,282.9,419.8,256.5,419.8z"/>
	<g>
		<g>
			<path id="XMLID_4_" class="st1" d="M210.8,236.4h202.6c23,0,41.6,26.5,41.6,59.1v286.4c0,32.7-18.6,59.1-41.6,59.1H210.8
				c-23,0-41.6-26.5-41.6-59.1V295.5C169.1,262.8,187.8,236.4,210.8,236.4z"/>
		</g>
		<g>
			<defs>
				<path id="SVGID_1_" d="M210.8,236.4h202.6c23,0,41.6,26.5,41.6,59.1v286.4c0,32.7-18.6,59.1-41.6,59.1H210.8
					c-23,0-41.6-26.5-41.6-59.1V295.5C169.1,262.8,187.8,236.4,210.8,236.4z"/>
			</defs>
			<clipPath id="SVGID_2_">
				<use xlink:href="#SVGID_1_"  style="overflow:visible;"/>
			</clipPath>
			<path class="st2" d="M169.6,270.1c0-18.3,10.4-33,23.3-33h88.2c12.8,0,23.2,14.8,23.2,33v116.7c0,18.2-10.4,33-23.2,33h-88.2
				c-12.8,0-23.2-14.8-23.2-33V270.1z"/>
			<use xlink:href="#SVGID_1_"  style="overflow:visible;fill:none;stroke:#222426;stroke-width:64;stroke-miterlimit:10;"/>
		</g>
		<g>
			<path id="XMLID_3_" class="st3" d="M210.8,236.4h202.6c23,0,41.6,26.5,41.6,59.1v286.4c0,32.7-18.6,59.1-41.6,59.1H210.8
				c-23,0-41.6-26.5-41.6-59.1V295.5C169.1,262.8,187.8,236.4,210.8,236.4z"/>
		</g>
	</g>
</g>
<g>
	<path class="st4" d="M806,419.8H634.4c-25.9,0-46.9-30.4-46.9-67.9V103.9c0-37.5,21-67.9,46.9-67.9H806c25.9,0,46.9,30.4,46.9,67.9
		v248.1C852.9,389.4,831.9,419.8,806,419.8z"/>
	<g>
		<g>
			<path id="XMLID_6_" class="st5" d="M761.1,236.4h199c22.6,0,40.9,26.5,40.9,59.1v286.4c0,32.7-18.3,59.1-40.9,59.1h-199
				c-22.6,0-40.9-26.5-40.9-59.1V295.5C720.2,262.8,738.5,236.4,761.1,236.4z"/>
		</g>
		<g>
			<defs>
				<path id="SVGID_3_" d="M761.1,236.4h199c22.6,0,40.9,26.5,40.9,59.1v286.4c0,32.7-18.3,59.1-40.9,59.1h-199
					c-22.6,0-40.9-26.5-40.9-59.1V295.5C720.2,262.8,738.5,236.4,761.1,236.4z"/>
			</defs>
			<clipPath id="SVGID_4_">
				<use xlink:href="#SVGID_3_"  style="overflow:visible;"/>
			</clipPath>
			<path class="st6" d="M720.7,270.1c0-18.3,10.2-33,22.9-33h86.6c12.6,0,22.8,14.8,22.8,33v116.7c0,18.2-10.2,33-22.8,33h-86.7
				c-12.6,0-22.8-14.8-22.8-33V270.1z"/>
			<use xlink:href="#SVGID_3_"  style="overflow:visible;fill:none;stroke:#222426;stroke-miterlimit:10;"/>
		</g>
		<g>
			<path id="XMLID_5_" class="st7" d="M761.1,236.4h199c22.6,0,40.9,26.5,40.9,59.1v286.4c0,32.7-18.3,59.1-40.9,59.1h-199
				c-22.6,0-40.9-26.5-40.9-59.1V295.5C720.2,262.8,738.5,236.4,761.1,236.4z"/>
		</g>
	</g>
</g>
<line class="st8" x1="524" y1="0" x2="524" y2="671"/>
</svg>
