<?xml version="1.0" encoding="utf-8"?>
<!-- Generator: Adobe Illustrator 22.1.0, SVG Export Plug-In . SVG Version: 6.00 Build 0)  -->
<svg version="1.1" id="圖層_1" xmlns="http://www.w3.org/2000/svg" xmlns:xlink="http://www.w3.org/1999/xlink" x="0px" y="0px"
	 viewBox="0 0 1024 1024" style="enable-background:new 0 0 1024 1024;" xml:space="preserve">
<style type="text/css">
	.st0{fill:none;stroke:#FFFFFF;stroke-width:80;stroke-miterlimit:10;}
</style>
<path class="st0" d="M899,905c47.3-47.9,33-95.9,37-373c4.4-309.9,23.9-358.4-24-407c-48-48.7-98.1-31-406-30
	c-291.3,1-340.3-14.6-387,33c-51.3,52.3-26.7,106.5-23,404c3.5,281.3-17.2,332.8,33,383c43.2,43.3,87.4,33.9,393,30
	C811.8,941.3,855.9,948.6,899,905z"/>
<line class="st0" x1="429" y1="312" x2="766" y2="312"/>
<line class="st0" x1="429" y1="520" x2="766" y2="520"/>
<line class="st0" x1="429" y1="705" x2="751" y2="705"/>
<line class="st0" x1="271" y1="261" x2="271" y2="753"/>
</svg>
