<?xml version="1.0" encoding="utf-8"?>
<!-- Generator: Adobe Illustrator 22.1.0, SVG Export Plug-In . SVG Version: 6.00 Build 0)  -->
<svg version="1.1" id="圖層_1" xmlns="http://www.w3.org/2000/svg" xmlns:xlink="http://www.w3.org/1999/xlink" x="0px" y="0px"
	 viewBox="0 0 1024 1024" style="enable-background:new 0 0 1024 1024;" xml:space="preserve">
<style type="text/css">
	.st0{fill:#00FFFF;stroke:#222426;stroke-width:96;stroke-linecap:round;stroke-miterlimit:10;}
	.st1{fill:#00FFFF;stroke:#222426;stroke-miterlimit:10;}
	.st2{clip-path:url(#SVGID_2_);stroke:#222426;stroke-width:96;stroke-linecap:round;stroke-miterlimit:10;}
	.st3{fill:none;stroke:#222426;stroke-width:96;stroke-linecap:round;stroke-miterlimit:10;}
</style>
<path class="st0" d="M535.1,638H153.8c-57.6,0-104.3-46.7-104.3-104.3v-381c0-57.6,46.7-104.3,104.3-104.3h381.3
	c57.6,0,104.3,46.7,104.3,104.3v381C639.3,591.3,592.7,638,535.1,638z"/>
<g>
	<g>
		<path id="XMLID_1_" class="st1" d="M435.8,357h442.3c50.2,0,90.9,40.7,90.9,90.9v439.7c0,50.2-40.7,90.9-90.9,90.9H435.8
			c-50.2,0-90.9-40.7-90.9-90.9V447.9C344.9,397.7,385.6,357,435.8,357z"/>
	</g>
	<g>
		<defs>
			<path id="SVGID_1_" d="M435.8,357h442.3c50.2,0,90.9,40.7,90.9,90.9v439.7c0,50.2-40.7,90.9-90.9,90.9H435.8
				c-50.2,0-90.9-40.7-90.9-90.9V447.9C344.9,397.7,385.6,357,435.8,357z"/>
		</defs>
		<clipPath id="SVGID_2_">
			<use xlink:href="#SVGID_1_"  style="overflow:visible;"/>
		</clipPath>
		<path class="st2" d="M395.7,357h192.9c28,0,50.8,22.7,50.8,50.8v179.5c0,28-22.7,50.8-50.8,50.8H395.7c-28,0-50.8-22.7-50.8-50.8
			V407.8C344.9,379.7,367.6,357,395.7,357z"/>
		<use xlink:href="#SVGID_1_"  style="overflow:visible;fill:none;stroke:#222426;stroke-miterlimit:10;"/>
	</g>
	<g>
		<path id="XMLID_2_" class="st3" d="M435.8,357h442.3c50.2,0,90.9,40.7,90.9,90.9v439.7c0,50.2-40.7,90.9-90.9,90.9H435.8
			c-50.2,0-90.9-40.7-90.9-90.9V447.9C344.9,397.7,385.6,357,435.8,357z"/>
	</g>
</g>
</svg>
